<?xml version="1.0" encoding="utf-8"?>
<!-- Generator: Adobe Illustrator 23.0.3, SVG Export Plug-In . SVG Version: 6.00 Build 0)  -->
<svg version="1.1" id="Layer_1" xmlns="http://www.w3.org/2000/svg" xmlns:xlink="http://www.w3.org/1999/xlink" x="0px" y="0px"
	 viewBox="0 0 512 512" style="enable-background:new 0 0 512 512;" xml:space="preserve">
<style type="text/css">
	.st0{fill:none;stroke:#303030;stroke-width:15;stroke-miterlimit:10;}
	.st1{fill:none;stroke:#00B670;stroke-width:15;stroke-miterlimit:10;}
	.st2{fill:none;stroke:url(#SVGID_1_);stroke-width:15;stroke-miterlimit:10;}
	.st3{fill:none;stroke:url(#SVGID_2_);stroke-width:15;stroke-miterlimit:10;}
	.st4{fill:#00B670;}
	.st5{fill:url(#SVGID_3_);}
	.st6{fill:url(#SVGID_4_);}
	.st7{fill:#303030;}
	.st8{fill:#FFFFFF;}
	.st9{fill:none;stroke:#FFFFFF;stroke-width:15;stroke-miterlimit:10;}
	.st10{fill:url(#SVGID_5_);}
	.st11{fill:url(#SVGID_6_);}
	.st12{fill:url(#SVGID_7_);}
	.st13{fill:url(#SVGID_8_);}
	.st14{fill:none;stroke:url(#SVGID_9_);stroke-width:15;stroke-miterlimit:10;}
	.st15{fill:none;stroke:url(#SVGID_10_);stroke-width:15;stroke-miterlimit:10;}
	.st16{fill:url(#SVGID_11_);}
	.st17{fill:url(#SVGID_12_);}
	.st18{fill:url(#SVGID_13_);}
	.st19{fill:url(#SVGID_14_);}
	.st20{fill:none;stroke:url(#SVGID_15_);stroke-width:15;stroke-miterlimit:10;}
	.st21{fill:none;stroke:url(#SVGID_16_);stroke-width:15;stroke-miterlimit:10;}
</style>
<g>
	<linearGradient id="SVGID_1_" gradientUnits="userSpaceOnUse" x1="109.0693" y1="307.8863" x2="404.8719" y2="307.8863">
		<stop  offset="0" style="stop-color:#1286DD"/>
		<stop  offset="1" style="stop-color:#38D588"/>
	</linearGradient>
	<path style="fill:url(#SVGID_1_);" d="M109.2,283.4c-0.9-15.8,2-31,7-45.5c15.4-44.7,50.5-77.5,111-61.7c4.3,1.1,8.8,1.9,13,3.5
		c14.3,5.5,28.2,4.1,42.3-0.6c18-6,36-11.1,55.5-7.6c23,4.1,40.9,15.9,55.3,33.8c3.9,4.9,3.4,9.3-1,13.6c-4.1,4-8.2,8.1-12.3,12.2
		c-32,32-23.5,87.6,16.9,107.7c8.3,4.2,9.5,8.7,6.4,16.7c-11.6,30.4-26.9,58.2-52.9,78.7c-14.1,11.1-29.7,14.5-46.9,8.1
		c-6.3-2.3-12.9-3.8-19.2-6.1c-15.1-5.3-29.9-5.3-45,0.7c-17,6.8-34.3,13.2-52.6,3.2c-8.6-4.7-16.3-10.3-22.6-17.7
		C129.8,382.5,111,336.3,109.2,283.4z"/>
	<linearGradient id="SVGID_2_" gradientUnits="userSpaceOnUse" x1="246.6173" y1="115.2568" x2="328.6692" y2="115.2568">
		<stop  offset="0" style="stop-color:#1286DD"/>
		<stop  offset="1" style="stop-color:#38D588"/>
	</linearGradient>
	<path style="fill:url(#SVGID_2_);" d="M315.2,67.2c-47.5,11-66.4,44.6-68.5,86.5c-0.3,6.5,2.5,10.9,9.5,10.3
		c13.4-1.2,26.7-3.1,37.8-12.1c21.6-17.5,34.6-39.2,34.2-67.7c0.2-1.9,0.5-3.8,0.6-5.7C328.9,68.3,324.9,64.9,315.2,67.2z
		 M310.9,92.2c-1.1,21.9-21.1,47.9-40.2,53c-4.9,1.3-7.7,1.3-6.4-4.7c5-23.7,15.9-43,39.7-52.4C309,86.1,312.3,85.3,310.9,92.2z"/>
</g>
</svg>
